<?xml version="1.0" encoding="utf-8"?>
<!-- Generator: Adobe Illustrator 22.1.0, SVG Export Plug-In . SVG Version: 6.00 Build 0)  -->
<svg version="1.1" id="Layer_1" xmlns="http://www.w3.org/2000/svg" xmlns:xlink="http://www.w3.org/1999/xlink" x="0px" y="0px"
	 viewBox="0 0 400 200" style="enable-background:new 0 0 400 200;" xml:space="preserve">
<style type="text/css">
	.st0{fill:#010101;}
</style>
<g>
	<path class="st0" d="M4.4,93.3l7.1-0.6c0.3,2.8,1.1,5.1,2.3,7c1.2,1.8,3.1,3.3,5.7,4.4c2.6,1.1,5.5,1.7,8.7,1.7
		c2.9,0,5.4-0.4,7.6-1.3c2.2-0.8,3.8-2,4.9-3.5c1.1-1.5,1.6-3.1,1.6-4.8c0-1.8-0.5-3.3-1.5-4.6s-2.7-2.4-5.1-3.3
		c-1.5-0.6-4.9-1.5-10.1-2.8c-5.2-1.2-8.8-2.4-10.9-3.5c-2.7-1.4-4.7-3.2-6-5.3s-2-4.4-2-7c0-2.9,0.8-5.5,2.4-8s4-4.4,7.1-5.6
		c3.1-1.3,6.6-1.9,10.4-1.9c4.2,0,7.9,0.7,11.1,2s5.7,3.3,7.4,6c1.7,2.6,2.6,5.6,2.8,8.9l-7.2,0.5c-0.4-3.6-1.7-6.3-3.9-8.1
		s-5.5-2.7-9.9-2.7c-4.5,0-7.8,0.8-9.9,2.5s-3.1,3.7-3.1,6c0,2,0.7,3.7,2.2,5c1.4,1.3,5.2,2.7,11.3,4c6.1,1.4,10.3,2.6,12.5,3.6
		c3.3,1.5,5.7,3.4,7.3,5.8c1.6,2.3,2.4,5,2.4,8s-0.9,5.8-2.6,8.5c-1.7,2.7-4.2,4.7-7.4,6.2s-6.9,2.2-10.9,2.2
		c-5.1,0-9.4-0.7-12.9-2.2s-6.2-3.7-8.1-6.7C5.5,100.4,4.5,97,4.4,93.3z"/>
	<path class="st0" d="M61.4,111.4V54.9h40.9v6.7H68.8v17.3h31.3v6.6H68.8v19.2h34.7v6.7H61.4z"/>
	<path class="st0" d="M115.2,111.4V54.9h7.5v28l28.1-28h10.1l-23.7,22.9l24.8,33.6h-10l-20.1-28.6l-9.3,9v19.6H115.2z"/>
	<path class="st0" d="M167.4,83.9c0-9.4,2.5-16.7,7.6-22c5-5.3,11.5-8,19.5-8c5.2,0,9.9,1.2,14.1,3.7c4.2,2.5,7.4,6,9.6,10.4
		c2.2,4.5,3.3,9.5,3.3,15.2s-1.2,10.9-3.5,15.4s-5.6,8-9.8,10.3s-8.8,3.5-13.7,3.5c-5.3,0-10.1-1.3-14.3-3.9
		c-4.2-2.6-7.4-6.1-9.5-10.5C168.5,93.6,167.4,88.9,167.4,83.9z M175.2,84c0,6.8,1.8,12.2,5.5,16.1c3.7,3.9,8.3,5.9,13.8,5.9
		c5.6,0,10.3-2,13.9-5.9c3.6-4,5.5-9.6,5.5-16.9c0-4.6-0.8-8.6-2.3-12.1c-1.6-3.4-3.8-6.1-6.8-8s-6.4-2.8-10.1-2.8
		c-5.3,0-9.9,1.8-13.7,5.5C177.1,69.4,175.2,75.5,175.2,84z"/>
	<path class="st0" d="M232.7,111.4V54.9h7.7l29.7,44.4V54.9h7.2v56.5h-7.7L239.8,67v44.4H232.7z"/>
	<path class="st0" d="M291.3,111.4V54.9h19.5c4.4,0,7.8,0.3,10.1,0.8c3.2,0.7,6,2.1,8.3,4c3,2.5,5.2,5.7,6.7,9.7
		c1.5,3.9,2.2,8.4,2.2,13.4c0,4.3-0.5,8.1-1.5,11.4c-1,3.3-2.3,6.1-3.9,8.2c-1.6,2.2-3.3,3.9-5.1,5.1c-1.9,1.2-4.1,2.2-6.7,2.8
		s-5.7,1-9.1,1h-20.5V111.4z M298.8,104.8h12.1c3.7,0,6.7-0.3,8.8-1c2.1-0.7,3.8-1.7,5.1-2.9c1.8-1.8,3.2-4.2,4.1-7.2
		c1-3,1.5-6.6,1.5-10.9c0-5.9-1-10.5-2.9-13.6c-1.9-3.2-4.3-5.3-7.1-6.4c-2-0.8-5.2-1.2-9.7-1.2h-11.9V104.8z"/>
	<path class="st0" d="M343.7,111.4l21.7-56.5h8.1l23.1,56.5h-8.5l-6.6-17.1h-23.6l-6.2,17.1H343.7z M360.1,88.2h19.2l-5.9-15.7
		c-1.8-4.8-3.1-8.7-4-11.7c-0.7,3.6-1.7,7.2-3,10.8L360.1,88.2z"/>
</g>
<g>
	<path class="st0" d="M14,146.3v-16.9H7.7v-2.3h15.1v2.3h-6.3v16.9H14z"/>
	<path class="st0" d="M26.1,146.3v-19.1h2.5v7.8h9.9v-7.8H41v19.1h-2.5v-9h-9.9v9H26.1z"/>
	<path class="st0" d="M45.9,146.3v-19.1h13.8v2.3H48.4v5.9H59v2.2H48.4v6.5h11.7v2.3L45.9,146.3L45.9,146.3z"/>
	<path class="st0" d="M84.6,127.2h2.5v11c0,1.9-0.2,3.4-0.7,4.6c-0.4,1.1-1.2,2-2.4,2.8s-2.6,1.1-4.5,1.1c-1.8,0-3.3-0.3-4.4-0.9
		c-1.1-0.6-2-1.5-2.4-2.7c-0.5-1.2-0.7-2.8-0.7-4.8v-11h2.5v11c0,1.7,0.2,2.9,0.5,3.7s0.8,1.4,1.6,1.8c0.8,0.4,1.7,0.6,2.8,0.6
		c1.9,0,3.2-0.4,4-1.3c0.8-0.8,1.2-2.5,1.2-4.9V127.2z"/>
	<path class="st0" d="M91.8,146.3v-19.1h2.5v9.5l9.5-9.5h3.4l-8,7.7l8.4,11.4h-3.3l-6.8-9.7l-3.1,3v6.6h-2.6V146.3z"/>
	<path class="st0" d="M109.8,129.7V127h2.5v2.2c0,1.2-0.1,2-0.4,2.5c-0.4,0.7-1,1.2-1.7,1.6l-0.6-0.9c0.5-0.2,0.8-0.5,1-0.9
		s0.4-1,0.4-1.7h-1.2V129.7z"/>
	<path class="st0" d="M115.9,140.2l2.4-0.2c0.1,1,0.4,1.7,0.8,2.4s1.1,1.1,1.9,1.5c0.9,0.4,1.8,0.6,2.9,0.6c1,0,1.8-0.1,2.6-0.4
		c0.7-0.3,1.3-0.7,1.6-1.2c0.4-0.5,0.5-1,0.5-1.6s-0.2-1.1-0.5-1.6c-0.3-0.4-0.9-0.8-1.7-1.1c-0.5-0.2-1.6-0.5-3.4-0.9
		s-3-0.8-3.7-1.2c-0.9-0.5-1.6-1.1-2-1.8s-0.7-1.5-0.7-2.4c0-1,0.3-1.9,0.8-2.7s1.3-1.5,2.4-1.9s2.2-0.7,3.5-0.7
		c1.4,0,2.7,0.2,3.7,0.7c1.1,0.5,1.9,1.1,2.5,2c0.6,0.9,0.9,1.9,0.9,3l-2.4,0.2c-0.1-1.2-0.6-2.1-1.3-2.7c-0.8-0.6-1.9-0.9-3.3-0.9
		c-1.5,0-2.6,0.3-3.3,0.8c-0.7,0.6-1,1.2-1,2c0,0.7,0.2,1.3,0.7,1.7s1.8,0.9,3.8,1.4c2.1,0.5,3.5,0.9,4.2,1.2
		c1.1,0.5,1.9,1.2,2.5,1.9s0.8,1.7,0.8,2.7s-0.3,2-0.9,2.9c-0.6,0.9-1.4,1.6-2.5,2.1c-1.1,0.5-2.3,0.8-3.7,0.8
		c-1.7,0-3.2-0.3-4.3-0.8c-1.2-0.5-2.1-1.3-2.8-2.3C116.2,142.6,115.9,141.5,115.9,140.2z"/>
	<path class="st0" d="M143,146.3v-19.1h2.6l10,15v-15h2.4v19.1h-2.6l-10-15v15H143z"/>
	<path class="st0" d="M161.5,132.7c0-2.2,0.6-3.9,1.9-5c1-0.9,2.3-1.3,3.8-1.3c1.7,0,3,0.5,4.1,1.6s1.6,2.6,1.6,4.5
		c0,1.6-0.2,2.8-0.7,3.7s-1.1,1.6-2,2.1s-1.9,0.7-2.9,0.7c-1.7,0-3.1-0.5-4.1-1.6C162,136.3,161.5,134.7,161.5,132.7z M163.6,132.7
		c0,1.5,0.3,2.7,1,3.5s1.5,1.2,2.6,1.2c1,0,1.9-0.4,2.5-1.2c0.7-0.8,1-2,1-3.5s-0.3-2.6-1-3.4c-0.7-0.8-1.5-1.2-2.5-1.2
		s-1.9,0.4-2.6,1.1C164,130,163.6,131.1,163.6,132.7z"/>
	<path class="st0" d="M184.1,146.3h-2.3v-14.9c-0.6,0.5-1.3,1.1-2.2,1.6s-1.7,0.9-2.5,1.2v-2.3c1.3-0.6,2.5-1.4,3.4-2.2
		c1-0.9,1.7-1.7,2.1-2.6h1.5V146.3z"/>
	<path class="st0" d="M202.9,146.3l-5.1-19.1h2.6l2.9,12.5c0.3,1.3,0.6,2.6,0.8,3.9c0.5-2,0.8-3.2,0.9-3.5l3.6-12.9h3l2.7,9.7
		c0.7,2.4,1.2,4.7,1.5,6.8c0.2-1.2,0.6-2.6,1-4.2l3-12.3h2.5l-5.2,19.1h-2.4l-4-14.6c-0.3-1.2-0.5-2-0.6-2.2
		c-0.2,0.9-0.4,1.6-0.6,2.2l-4.1,14.6H202.9z"/>
	<path class="st0" d="M222.2,146.3l7.3-19.1h2.7l7.8,19.1h-2.9l-2.2-5.8h-8l-2.1,5.8H222.2z M227.7,138.5h6.5l-2-5.3
		c-0.6-1.6-1.1-2.9-1.4-4c-0.2,1.2-0.6,2.4-1,3.6L227.7,138.5z"/>
	<path class="st0" d="M245.5,146.3v-16.9h-6.3v-2.3h15.1v2.3H248v16.9H245.5z"/>
	<path class="st0" d="M271.1,139.6l2.5,0.6c-0.5,2.1-1.5,3.7-2.9,4.8s-3.1,1.6-5.1,1.6c-2.1,0-3.7-0.4-5-1.3
		c-1.3-0.8-2.3-2.1-2.9-3.6c-0.7-1.6-1-3.3-1-5.1c0-2,0.4-3.7,1.1-5.2c0.8-1.5,1.8-2.6,3.2-3.4s2.9-1.2,4.6-1.2
		c1.9,0,3.5,0.5,4.8,1.5s2.2,2.3,2.7,4.1l-2.5,0.6c-0.4-1.4-1.1-2.4-1.9-3s-1.9-1-3.2-1c-1.5,0-2.7,0.4-3.7,1.1
		c-1,0.7-1.7,1.6-2.1,2.8s-0.6,2.4-0.6,3.7c0,1.6,0.2,3,0.7,4.3c0.5,1.2,1.2,2.1,2.2,2.7c1,0.6,2.1,0.9,3.2,0.9
		c1.4,0,2.6-0.4,3.6-1.2C270.1,142.4,270.8,141.2,271.1,139.6z"/>
	<path class="st0" d="M277.4,146.3v-19.1h2.5v7.8h9.9v-7.8h2.5v19.1h-2.5v-9h-9.9v9H277.4z"/>
	<path class="st0" d="M305,146.3v-19.1h7.2c1.5,0,2.6,0.2,3.5,0.6c0.9,0.4,1.6,1,2.1,1.8s0.7,1.6,0.7,2.5c0,0.8-0.2,1.6-0.7,2.3
		s-1.1,1.3-2,1.7c1.2,0.3,2,0.9,2.7,1.7c0.6,0.8,0.9,1.8,0.9,2.9c0,0.9-0.2,1.7-0.6,2.5s-0.8,1.4-1.4,1.8c-0.6,0.4-1.3,0.7-2.1,0.9
		c-0.8,0.2-1.9,0.3-3.1,0.3H305V146.3z M307.5,135.2h4.1c1.1,0,1.9-0.1,2.4-0.2c0.6-0.2,1.1-0.5,1.5-1c0.3-0.4,0.5-1,0.5-1.7
		c0-0.6-0.2-1.2-0.5-1.7s-0.7-0.8-1.3-1c-0.6-0.2-1.5-0.3-2.9-0.3h-3.8L307.5,135.2L307.5,135.2z M307.5,144.1h4.8
		c0.8,0,1.4,0,1.7-0.1c0.6-0.1,1.1-0.3,1.5-0.5s0.7-0.6,1-1.1s0.4-1,0.4-1.6c0-0.7-0.2-1.3-0.5-1.9s-0.9-0.9-1.5-1.1
		c-0.6-0.2-1.6-0.3-2.8-0.3h-4.4v6.6H307.5z"/>
	<path class="st0" d="M323.5,146.3v-19.1h8.5c1.7,0,3,0.2,3.9,0.5s1.6,0.9,2.1,1.8c0.5,0.9,0.8,1.8,0.8,2.9c0,1.4-0.4,2.5-1.3,3.4
		s-2.2,1.5-4.1,1.8c0.7,0.3,1.2,0.6,1.5,1c0.7,0.7,1.4,1.5,2.1,2.5l3.3,5.2h-3.2l-2.5-4c-0.7-1.1-1.3-2-1.8-2.6s-0.9-1-1.3-1.3
		c-0.4-0.2-0.8-0.4-1.2-0.5c-0.3-0.1-0.8-0.1-1.4-0.1H326v8.5L323.5,146.3L323.5,146.3z M326,135.6h5.4c1.2,0,2.1-0.1,2.7-0.4
		c0.7-0.2,1.1-0.6,1.5-1.1c0.3-0.5,0.5-1.1,0.5-1.7c0-0.9-0.3-1.6-1-2.2c-0.7-0.6-1.7-0.9-3.1-0.9h-6V135.6z"/>
	<path class="st0" d="M341.1,146.3l7.3-19.1h2.7l7.8,19.1H356l-2.2-5.8h-8l-2.1,5.8H341.1z M346.6,138.5h6.5l-2-5.3
		c-0.6-1.6-1.1-2.9-1.4-4c-0.2,1.2-0.6,2.4-1,3.6L346.6,138.5z"/>
	<path class="st0" d="M361.5,146.3v-19.1h2.6l10,15v-15h2.4v19.1H374l-10-15v15H361.5z"/>
	<path class="st0" d="M381.4,146.3v-19.1h6.6c1.5,0,2.6,0.1,3.4,0.3c1.1,0.3,2,0.7,2.8,1.4c1,0.9,1.8,1.9,2.3,3.3
		c0.5,1.3,0.7,2.8,0.7,4.5c0,1.5-0.2,2.7-0.5,3.9c-0.3,1.1-0.8,2-1.3,2.8c-0.5,0.7-1.1,1.3-1.7,1.7s-1.4,0.7-2.3,1
		c-0.9,0.2-1.9,0.3-3.1,0.3L381.4,146.3L381.4,146.3z M383.9,144.1h4.1c1.3,0,2.2-0.1,3-0.4c0.7-0.2,1.3-0.6,1.7-1
		c0.6-0.6,1.1-1.4,1.4-2.4s0.5-2.2,0.5-3.7c0-2-0.3-3.5-1-4.6s-1.5-1.8-2.4-2.2c-0.7-0.3-1.8-0.4-3.3-0.4h-4L383.9,144.1
		L383.9,144.1z"/>
</g>
</svg>
