<?xml version="1.0" standalone="no"?>
<!DOCTYPE svg PUBLIC "-//W3C//DTD SVG 20010904//EN"
 "http://www.w3.org/TR/2001/REC-SVG-20010904/DTD/svg10.dtd">
<svg version="1.0" xmlns="http://www.w3.org/2000/svg"
 width="300.000000pt" height="150.000000pt" viewBox="0 0 300.000000 150.000000"
 preserveAspectRatio="xMidYMid meet">

<g transform="translate(0.000000,150.000000) scale(0.100000,-0.100000)"
fill="#000000" stroke="none">
<path d="M227 949 c-81 -19 -127 -58 -152 -128 -60 -170 79 -301 288 -272 139
19 149 29 145 138 l-3 78 -103 3 -103 3 3 -28 c3 -27 5 -28 66 -31 l62 -3 0
-39 0 -39 -56 -11 c-124 -26 -212 21 -221 116 -4 40 0 55 19 84 13 19 35 40
48 47 35 18 140 16 197 -3 44 -15 48 -15 60 2 7 10 13 24 13 31 0 18 -47 39
-115 52 -67 13 -95 13 -148 0z"/>
<path d="M743 938 c-14 -17 -183 -367 -183 -379 0 -5 16 -9 35 -9 28 0 37 5
50 30 l16 30 109 0 109 0 16 -30 c14 -27 21 -30 61 -30 39 0 45 3 40 18 -3 9
-48 98 -98 197 -81 157 -96 180 -119 183 -14 2 -31 -3 -36 -10z m69 -187 c20
-44 33 -82 30 -85 -9 -10 -140 -7 -146 3 -7 10 62 161 73 161 4 0 24 -36 43
-79z"/>
<path d="M1064 937 c-2 -7 -3 -96 -2 -197 l3 -185 40 0 40 0 3 78 3 77 52 0
52 0 58 -80 c58 -79 58 -80 103 -80 24 0 44 2 44 5 0 3 -24 40 -52 82 -29 41
-48 77 -43 79 6 2 25 13 43 24 83 51 61 173 -36 200 -56 15 -301 13 -308 -3z
m290 -76 c10 -11 16 -30 14 -42 -5 -36 -43 -49 -133 -47 l-80 3 -3 53 -3 52
94 0 c80 0 96 -3 111 -19z"/>
<path d="M1567 943 c-4 -3 -7 -94 -7 -200 l0 -194 38 3 37 3 0 132 c0 72 2
129 5 126 3 -2 35 -59 71 -126 36 -67 70 -122 76 -124 8 -3 45 60 123 210 l25
48 5 -133 5 -133 38 -3 37 -3 -2 198 -3 198 -41 3 c-49 4 -53 -1 -129 -141
-26 -48 -52 -86 -57 -85 -5 2 -32 46 -60 98 -28 52 -57 103 -66 113 -15 17
-81 24 -95 10z"/>
<path d="M2160 750 l0 -200 40 0 40 0 0 200 0 200 -40 0 -40 0 0 -200z"/>
<path d="M2380 749 l0 -200 38 3 37 3 5 134 5 134 132 -137 c123 -128 134
-137 165 -134 l33 3 0 195 0 195 -35 0 -35 0 -5 -128 -5 -129 -129 131 c-121
124 -130 131 -167 131 l-39 0 0 -201z"/>
<path d="M2860 616 c-31 -39 26 -98 64 -66 17 14 21 47 7 69 -13 21 -49 -4
-53 -36 -4 -25 -5 -26 -13 -9 -5 11 -4 26 4 37 13 22 8 25 -9 5z m70 -25 c0
-9 -5 -22 -12 -29 -17 -17 -39 -15 -32 3 4 8 10 13 14 10 11 -7 22 24 13 37
-3 7 -1 8 5 4 7 -4 12 -15 12 -25z m-25 9 c3 -5 1 -10 -4 -10 -6 0 -11 5 -11
10 0 6 2 10 4 10 3 0 8 -4 11 -10z"/>
</g>
</svg>
