<?xml version="1.0" encoding="utf-8"?>
<!-- Generator: Adobe Illustrator 23.0.3, SVG Export Plug-In . SVG Version: 6.00 Build 0)  -->
<svg version="1.1" id="Layer_1" xmlns="http://www.w3.org/2000/svg" xmlns:xlink="http://www.w3.org/1999/xlink" x="0px" y="0px"
	 viewBox="0 0 275.2 99.1" style="enable-background:new 0 0 275.2 99.1;" xml:space="preserve">
<style type="text/css">
	.st0{fill-rule:evenodd;clip-rule:evenodd;fill:#48605C;}
	.st1{fill:#48605C;}
	.st2{fill:#898C8E;}
</style>
<polygon class="st0" points="249.4,59.3 241.1,71.6 232.6,65.8 240.8,53.6 242.8,24.9 252.5,31.4 250,49.2 265.5,40.2 275.2,46.8 
	249.4,59.3 "/>
<path class="st1" d="M218.3,15.3l-19.1-6.6l-13,37.4l9.7,3.4l4.7-13.6l7.4,2.6c4.6,1.6,3.8,5.7,2.8,9.5c-0.3,1.1-1.4,4.8-1,6.4
	l9.6,3.4c-0.8-1.8,0.9-7.4,1.4-9c0.9-3.7,1.3-8.5-2.3-10.8l0-0.1c4.5-0.2,7.7-3.3,9.1-7.4C230.3,22.8,224.9,17.6,218.3,15.3z
	 M217.5,28.3c-1,2.8-3.1,3.9-6,2.8l-8.2-2.8l2.9-8.4l7.7,2.7C216.7,23.5,218.5,25.5,217.5,28.3z"/>
<path class="st1" d="M165.3,2.6l-10.4-1.1L136,39.3l10.5,1.1l3.2-6.8l13.7,1.5l1.7,7.3l10.7,1.1L165.3,2.6z M152.9,26.3l5.9-13.3
	l0.1,0l2.9,14.3L152.9,26.3z"/>
<polygon class="st0" points="131.3,8.9 119.5,9.6 121.4,40.3 111.2,40.9 109.3,10.2 97.5,11 96.9,2.1 130.8,0 131.3,8.9 "/>
<path class="st1" d="M90,22.8C87.1,11.7,78.1,4.5,66,7.6c-12.1,3.1-16.7,13.7-13.8,24.8C55,43.6,64,50.7,76.1,47.6
	C88.2,44.6,92.8,34,90,22.8z M73.9,39c-6.4,1.6-10.4-3.4-11.8-9.1c-1.4-5.7-0.4-12,6-13.7c6.4-1.6,10.4,3.4,11.8,9.1
	C81.4,31,80.4,37.4,73.9,39z"/>
<path class="st1" d="M44.3,47.1c-2.1-3.1-5.5-6.6-9.7-5.4l-0.1-0.1c2.8-3.4,2.6-8,0.5-11.7C31.2,23,23.6,23.6,17.6,27L0,37
	l19.5,34.5l9-5.1l-7.1-12.6l6.8-3.9c4.2-2.4,6.8,0.9,9,4.2c0.7,0.9,2.7,4.2,4.1,4.9l8.9-5C48.3,53.5,45.2,48.5,44.3,47.1z M25,42.6
	l-7.5,4.3L13,39.1l7.1-4c2.5-1.4,5.2-1.4,6.6,1.1C28.3,38.8,27.7,41.1,25,42.6z"/>
<path class="st2" d="M162.1,62.2c-4.8,0-13.7,6.3-16.9,8.1c0-3.4-0.9-7.7-1.7-9.6c-1.4-2.6-3.9-2-6.1-2c-4.8,0-4.7,14.1-4.7,14.1
	c-6.1-3.6-13.9-10.6-20.5-10.2C92.5,65.2,75,73.6,57,80.8l-0.6,0.8h76.2c0,14,3.8,17.6,4.2,17.5h4.7c0.7,0,3.5-5.3,3.5-17.4
	l71.5-0.1l1.4-0.6C200,73.3,174.5,62.2,162.1,62.2z M120.5,78.9l7.5-1.9c0.6-1.1-0.2-1.6-1.1-1.7c-9.1-0.3-15.8,5-25.2,3.9
	c6.1-3.3,13.9-3.6,20.5-5.8c-0.3-1.7-2.1-1.8-3.3-1.7c-10,1.7-19.1,4.7-28.5,7.5h-6.1c8.9-3.9,19.4-6.7,29.4-8.9v-0.8
	c-6.4-1.1-11.9,1.4-18,2.5c-7.2,2.2-14.1,5.3-21.6,7.2c-1.7,0-3.6,0.3-5.3,0c14.4-5.8,29.9-13.9,45.1-12.3c7.4,1.2,15.6,7.5,21.4,12
	H120.5z M140,91.5c-0.6,2.6-0.9,4.8-2.3,4.8c-1.4-1.1-2.5-8.5-2.5-11.2v-3.4c2.2,0,2.9-0.2,3.1-1.6c0-3.8-3.2-6.1-3.2-6.1
	c0.3-1.7,0.2-5,0.5-7.1c0.1-3.4,1.6-6.1,2.4-6.1c1.3,0,2.1,3.8,2.2,5.8C140.7,74.6,141,86,140,91.5z M199.7,79.1
	c-5.3-2.1-11-4.5-16.8-6.4c-6.8-2.2-14.3-4.5-22.1-2.9c10.3,2,20.9,5.9,30.4,9.3l-8.1-0.2c-5.7-1.9-11.7-3.7-17.6-5.6
	c-4-1.3-9.7-3-12.7-0.3c5.5,0.8,10.1,1.8,15.8,3.9l5.2,2.2h-6.7c-2.3-0.7-10.7-4-16.6-4.2c-0.8,0.2-3.2,0.7-1.6,2.4l6.2,1.8h-8.8
	c-0.6-1.7-1-3.9,2.1-6.1c6.9-4.4,10.2-8,24.4-5.5c11.6,2.2,23.5,6.9,34.3,11.7H199.7z"/>
</svg>
